<svg width="32" height="32" viewBox="0 0 32 32" fill="none" xmlns="http://www.w3.org/2000/svg">
  <path fill-rule="evenodd" clip-rule="evenodd" d="M15.999 2.667a6.667 6.667 0 0 0-6.667 6.666V12H7.999a2.667 2.667 0 0 0-2.667 2.666v12a2.667 2.667 0 0 0 2.667 2.667h16a2.667 2.667 0 0 0 2.666-2.666v-12A2.667 2.667 0 0 0 24 12h-1.334V9.333A6.667 6.667 0 0 0 16 2.666Zm4 9.333V9.333a4 4 0 0 0-8 0V12h8Zm-4 5.333c.736 0 1.333.597 1.333 1.334v4a1.333 1.333 0 1 1-2.667 0v-4c0-.737.597-1.334 1.334-1.334Z" fill="url(#privacy_lock_gradient)"/>
  <defs>
    <linearGradient id="privacy_lock_gradient" x1="15.999" y1="2.667" x2="15.999" y2="29.333" gradientUnits="userSpaceOnUse">
      <stop stop-color="#797979"/>
      <stop offset="1" stop-color="#000000"/>
    </linearGradient>
  </defs>
</svg>
